<svg width="176" height="157" viewBox="0 0 176 157" fill="none" xmlns="http://www.w3.org/2000/svg">
<path d="M167.194 72.0116C154.853 86.6873 138.41 89.8673 128.358 89.5526C137.378 88.0489 150.07 82.5075 153.694 68.0115C158.094 50.4115 149.86 39.3448 145.194 36.0115L123.194 28.5115L74.1937 123.511L19.1937 127.511L5.19372 112.011C2.69372 108.011 -1.70628 96.1115 0.693716 80.5115C3.09372 64.9115 17.0271 53.6781 23.6937 50.0115C39.2937 43.2115 53.5271 45.5115 58.6937 47.5115C52.3604 46.8448 37.4937 47.9115 28.6937 57.5115C19.8937 67.1115 21.0271 80.5115 22.6937 86.0115C23.3604 89.0115 27.1937 96.7115 37.1937 103.511C47.1937 110.311 55.0271 103.345 57.6937 99.0115L78.1937 51.0115L90.6937 23.5115C98.6937 9.51139 112.198 -0.386108 129.694 0.0115658C151.694 0.511627 163.194 12.0116 167.194 19.0116C173.694 30.0115 181.994 54.4116 167.194 72.0116Z" fill="#3C7E44"/>
<path d="M126.694 75.5115L100.694 132.011C85.1937 160.511 56.6937 158.511 47.1937 154.011C42.3604 151.178 30.5937 142.811 22.1937 132.011C13.7937 121.211 15.6937 104.845 17.6937 98.0115C18.5271 95.0115 22.1937 85.0115 32.6937 75.5115C43.6082 65.6365 57.5271 65.6781 63.6937 67.5115C50.8937 66.7115 41.6937 79.8448 38.6937 86.5115C35.6937 92.3448 33.1937 107.011 47.1937 119.011C61.1937 131.011 71.3604 122.345 74.6937 116.511L93.1937 75.5115C95.3604 70.3448 103.494 58.9115 118.694 54.5115C133.894 50.1115 145.36 54.3448 149.194 57.0115C136.794 60.2115 129.027 70.6781 126.694 75.5115Z" fill="#E2B53E"/>
<circle cx="127.194" cy="29.5115" r="19" fill="#E2B53E"/>
</svg>
